<svg t="1575943021271" class="icon" viewBox="0 0 1024 1024" version="1.1" xmlns="http://www.w3.org/2000/svg" p-id="15278" width="64" height="64"><path d="M493.154281 795.458887c149.860123 0 271.339872-123.310444 271.339872-275.44026 0-152.102187-121.479749-275.43105-271.339872-275.431049-149.826354 0-271.306102 123.328863-271.306102 275.431049-0.001023 152.123676 121.479749 275.44026 271.306102 275.44026" fill="#FDB827" p-id="15279"></path><path d="M616.838232 548.204573c-25.340131 30.749328-39.71349 41.271986-65.456805 41.271986-8.764618 0-13.326517-1.971911-10.864442-6.211469l30.530341-61.406558h11.644201c13.004175 0 11.205203 10.957563 7.667633 25.780153-0.623193 2.074242 0.943488 2.188852 2.488681 0.391926l29.030174-51.018977c1.420349-3.220345-2.25025-3.841491-4.036943-1.411139-14.540158 19.739577-29.847795 18.274202-36.295648 18.274202H576.278467l32.628118-62.2426h13.144368c16.554024 1.025353 24.26259 15.08865 19.471471 48.979528h6.891967l23.967878-47.254233c1.940189-3.991917-2.143826-7.653307-6.66377-7.653307l-162.725129 0.048095c-9.420557 0-9.845229 7.230682-0.802272 7.230682 7.314593 0 6.928806 10.498098 0.353041 15.575743l-69.076238 54.854329 13.954826 64.760956c1.016143 4.88424 4.170996 7.212262 9.564843 7.212262h134.554532c5.548366 0 7.838525-2.255367 9.627265-4.564969l24.359804-42.080397c3.373841-6.060019-4.447289-5.668093-8.690939-0.536213m-93.724615-29.572526l-11.846816-0.066514c-0.820692 0-1.49505 0.650823-1.49505 1.489933 0 0.818645 0.674359 1.49505 1.49505 1.495051l12.006452-0.114611c4.071735 0 7.794523 0.517793 6.757914 2.321882l-31.117718 59.412135c-3.855818 7.080256-12.042267 5.27105-13.338797-0.391926l-15.410991-79.627549 54.188156-42.013883c5.374404-4.619204 15.743566-12.157901 21.036106-12.072966l11.803837-0.072655c7.182586-0.042979 9.754155 3.322675 8.045233 7.676843l-2.087544 4.015454c-1.350764 2.255367-5.592368 2.526543-9.210779 2.526543l-6.814196 0.030699c-0.839111 0-1.509377 0.663102-1.509377 1.51347 0 0.838088 0.669242 1.49505 1.509377 1.49505h6.723121c2.904143 0 6.548136 0.072655 5.210675 2.25639l-25.1324 47.919383c-1.163499 1.868557-6.385431 2.207271-10.812253 2.207271" fill="#552582" p-id="15280"></path><path d="M411.414629 588.156494c-3.663436-0.12689-6.012947-2.617617-6.815219-5.04183-1.157359-3.455705-1.051959-9.601682 0.337691-12.319583l62.784951-111.330598c1.017166-2.055822 3.564175-6.350638 6.68219-6.350638 5.545296 0.00614 7.941879-7.284917-1.452072-7.284917h-50.285266c-9.394974 0-9.489118 7.15291-0.486071 7.15291 3.672646 0 5.135974 3.599991 4.089132 5.794983l-13.882172 25.183566c-1.736551 2.755764-5.584182 2.972705-9.639544 2.972704l-11.975753-0.048095c-0.829901 0-1.499144 0.687662-1.499143 1.50733 0 0.831948 0.669242 1.531889 1.499143 1.531889h11.873422c3.211135 0 5.771447 0.971118 3.922333 4.696976l-46.337352 84.415598c-3.338025 4.644787-9.986445 5.681396-9.609868-3.219321l16.4783-123.626645c0.650823-3.865028-0.364297-6.482645-4.496408-6.482645l-24.839734 0.048095c-2.972705 0-4.799306 1.440815-6.228865 3.365654l-8.877182 11.162224c-1.170662 1.157359-3.664459 1.151219-6.422269 1.15122l-20.874423-0.035816c-0.828878 0-1.49505 0.669242-1.495051 1.49505 0 0.850367 0.666172 1.52575 1.495051 1.52575h17.036001c3.021823 0 6.5553 0.699941 5.27412 2.12336l-23.905456 30.067806c-0.720408 0.825808-3.03001 1.048889-4.462638 1.048889l-6.747681-0.00614c-0.844228 0-1.51654 0.676405-1.51654 1.496074 0 0.825808 0.672312 1.50119 1.51654 1.50119l5.632277 0.01842c1.74576 0 1.75804 0.850367 1.061169 1.645476l-22.481014 28.228925c-1.155313 1.090844-3.39533 1.314948-5.578042 1.314948l-19.847024-0.018419a1.494027 1.494027 0 0 0-1.486864 1.508353 1.50426 1.50426 0 0 0 1.486864 1.50119h17.026792c2.586918 0 4.583388 0.458441 3.220344 2.202155l-31.940456 40.058345c-6.002714 7.648191-34.913161 11.541871-40.542368 11.54187l108.010992-202.10502c1.028423-2.321882 5.047969-5.867638 9.184173-5.867638h22.937409c10.824533 0 10.505261-7.199982 1.109264-7.199983H215.045239c-9.386788 0-9.766434 7.199982 1.037633 7.199983h21.3564c6.057973 0 8.005324 3.660366 6.456039 6.65763l-3.063779 5.560646c-1.003863 1.803066-2.445702 2.527566-8.30106 2.527566l-37.729299-0.018419c-0.831948 0-1.49812 0.657986-1.49812 1.49505 0 0.831948 0.669242 1.50119 1.49812 1.50119l37.633109 0.01228c2.041496 0 5.101181 0.530073 3.177365 4.202718l-5.291516 9.793041c-0.892323 1.489934-3.198855 2.194992-5.858428 2.194992l-17.090237-0.029676c-0.847298 0-1.511423 0.681522-1.511423 1.496073a1.494027 1.494027 0 0 0 1.511423 1.51347l17.012466 0.023536c2.433422 0 2.499937 1.592264 1.088797 3.841492l-12.151761 22.590507c-1.037632 1.923816-3.012613 2.182712-6.872524 2.182712l-6.808056-0.036839c-0.838088 0-1.51347 0.675382-1.51347 1.51347 0 0.825808 0.675382 1.49505 1.51347 1.495051l6.718005 0.012279c2.559289 0 3.235694 1.429559 2.086521 3.872191l-9.975188 18.543332c-1.485841 2.636037-3.603061 3.684926-10.236132 3.684925l-37.727253-0.036839c-0.844228 0-1.5104 0.687662-1.5104 1.51347 0 0.831948 0.666172 1.50733 1.5104 1.50733l37.623899 0.01228c4.248767 0.066515 5.816472 1.923816 4.154623 4.975315l-19.484773 36.594453c-1.151219 1.62194-4.329609 1.86958-9.748015 1.86958l-37.724183-0.048095c-0.838088 0-1.49812 0.687662-1.498121 1.518586 0 0.826831 0.663102 1.489934 1.498121 1.489934l37.633108 0.012279c4.501524 0 7.254218 0.187265 5.878895 2.563382l-11.195994 21.110807c-2.068102 3.220345-7.851828 3.220345-10.106172 3.220345l-11.970635-0.035816c-0.822738 0-1.49505 0.669242-1.495051 1.50733 0 0.831948 0.672312 1.502213 1.495051 1.502214l11.865235 0.00614c4.199649 0 6.407943 0.728594 5.313006 2.978844l-14.994506 28.173666c-1.347694 2.514263-7.209192 2.635013-11.722996 2.635014l-58.32129-0.054236c-0.810459 0-1.5104 0.687662-1.5104 1.524727 0 0.808412 0.699941 1.496074 1.5104 1.496073l58.239426 0.01228c3.861958 0 8.731872 0.470721 6.916526 3.558036l-9.53926 17.988699c-0.904603 1.483794-4.167926 1.610684-8.877181 1.610684l-11.95631-0.018419c-0.838088 0-1.51654 0.669242-1.51654 1.49505 0 0.838088 0.678452 1.496074 1.51654 1.496074h11.877515c2.879584 0 6.42227 0.330528 5.179976 2.538822l-5.985318 11.481496c-1.926886 2.858094-3.850701 5.396917-8.479115 5.396917H75.820338c-10.824533 0-10.444886 7.206122-1.048889 7.206122l171.858136 0.103354c5.02648 0 5.183046-0.675382 7.549953-4.383844l25.493628-44.432978 130.263809 0.01228c9.408277 0.017396 6.986111-7.073092 1.477654-7.254218m-102.186334-13.237489c-1.27504 7.333012-8.650007 12.175297-17.930371 14.642488l-9.561773 2.375094 7.861038-14.159488c2.068102-3.846608-2.470261-6.115278-7.414877-0.391926-33.255405 38.763862-43.877323 57.302077-95.178732 57.440223l-13.789051 0.023536c-4.166903 0-8.747221-1.62808-5.915734-5.612834l18.145266-33.81413 68.943208 0.01228c9.407254 0 6.992251-7.091512 1.465375-7.271614-3.648087-0.12689-7.636934-2.213411-10.456143-6.67605-0.796132-1.236154-2.509147-6.144954 0.170892-9.925047l26.40437-35.097356h43.889603l-6.633071 38.454824z m9.930164-44.366464h-42.804899l54.156434-71.430865-11.351535 71.430865zM970.609511 552.643676c-0.703011-3.527336-1.972934-1.382487-4.299933 3.068895-0.714268 1.339508-2.972705 1.382487-5.233188 1.382487l-6.872524 0.022512c-0.840134 0-1.51961 0.669242-1.51961 1.51961 0 0.808412 0.679475 1.477654 1.51961 1.477654h6.777357c2.557242 0 2.618641 1.718131 1.406022 4.297886-4.749164 10.102079-9.627265 16.868179-16.117072 24.991184-1.016143 1.26583-3.620457 2.375094-5.683443 2.375094l-6.928806 0.042979c-0.831948 0-1.499144 0.675382-1.499144 1.51347 0 0.813528 0.668219 1.49505 1.499144 1.49505h6.777357c3.409656 0-0.048095 2.086521-0.623194 2.859117-12.015661 16.040325-20.302395 23.198352-29.125341 30.379915-1.036609 0.831948-6.014994 0.532119-9.505491 0.50756l-6.827499 0.023536c-0.820692 0-1.49812 0.680499-1.49812 1.530866 0 0.820692 0.681522 1.51347 1.49812 1.51347h6.745635c5.140067 0 1.26583 2.949168 0.505513 3.582595-18.7439 15.612583-46.626947 20.623713-59.395762 19.037588-41.423435-5.191232-49.969065-36.640502-53.03489-49.214888-0.621147-2.622734-2.617617-8.019651-3.27765-11.342326-1.276063-6.567579 17.412578-8.43716 22.577205-4.981455 7.817036 5.234211 26.078958 10.613732 40.443107 10.656711 13.284561 0.048095 40.479947-9.606799 48.343032-32.42141 8.05649-23.343661-12.159948-49.262984-21.134343-58.199517-11.391445-11.417027-22.185278-29.574572-17.625426-42.902112 3.418866-10.058077 9.141194-14.616906 21.406542-14.616906 15.852036 0 27.370371 10.191106 27.370371 24.645307 0 1.302669-0.772596 2.828418-1.821485 2.828418l-5.602601 0.018419c-0.829901 0-1.508353 0.699941-1.508354 1.52575 0 0.831948 0.681522 1.50733 1.508354 1.50733l5.2557-0.01228c1.488911 0 2.420119 1.127683 2.029216 2.942006-1.014096 4.824889-1.359974 8.231475-2.409886 13.079899-0.632403 2.811022 3.495614 4.758374 4.925173 2.707669l24.914436-44.473911c1.810229-3.358491-2.203178-4.257977-5.152347-3.214205-6.826476 2.346441-17.916045 4.004197-21.84861 1.164523-9.31618-6.681166-17.814738-10.963703-30.795377-10.963703-22.158672 0-37.665855 5.439896-47.613414 23.670096-0.774643 1.428535-2.951215 1.410116-4.811586 1.410116h-4.253884c-0.828878 0-1.496074 0.645706-1.496073 1.49505 0 0.825808 0.669242 1.49505 1.496073 1.49505l3.620458-0.029676c1.545192 0 2.584871 0.433882 1.812275 2.237971a66.209958 66.209958 0 0 0-1.877767 5.1503c-2.515287 7.893784-1.695618 18.965957 2.255367 28.825513 0.251733 0.664126-0.595564 0.972141-2.120291 0.97214h-6.76917c-0.837064 0-1.50733 0.681522-1.50733 1.51961a1.494027 1.494027 0 0 0 1.50733 1.49505h6.76917c3.065825 0.01228 3.804652 0.337691 5.071506 2.117221 3.510964 4.926196 7.080256 8.574283 11.576663 14.304797 1.431605 1.784646-4.623297 2.291183-7.839549 2.266624l-26.836205-0.01228c-0.853437 0-1.499144 0.693802-1.499143 1.51347 0 0.825808 0.645706 1.50733 1.499143 1.50733l27.172873-0.035816c4.369517 0 11.863189-0.060375 12.706393 0.899486 6.558369 7.598049 14.513552 19.279089 15.876596 29.114085 0.378623 2.845815-0.681522 4.033873-4.177136 4.033873h-3.64604c-0.829901 0-1.49505 0.657986-1.495051 1.496074 0 0.831948 0.669242 1.49505 1.495051 1.49505h3.218298c2.777253 0 4.282536 0.465604 3.632737 2.538823-3.530406 11.253298-8.809643 19.405979-30.320563 19.291368-22.550599-0.132006-27.137057-22.239514-20.541848-45.311998 1.289366-4.577249-0.058328-6.560416-2.123361-2.936889l-15.703657 24.658609c-0.379647 0.585331-1.890047 1.990331-4.290723 1.990331l-2.212388-0.01228c-0.849344 0-1.49505 0.681522-1.49505 1.51347 0 0.826831 0.677429 1.496074 1.49505 1.496074 1.986237 0 2.768043 1.061169 1.986238 2.164292l-5.732562 8.974396c-9.509585-21.698185-25.396413-48.424896-33.869388-58.152445l0.147356-0.469698c20.925588-1.272993 51.765991-20.86112 56.840566-38.379098 8.762571-30.387078-20.756743-41.615816-36.852326-41.615817l-70.704319 0.01228c-9.395998 0-10.088776 7.133468-1.074471 7.133467 4.877077 0 9.130961 4.257977 6.990205 8.57019l-15.658632 28.222785c-1.291412 2.315742-6.16542 2.176572-12.474102 2.176572h-6.859222c-0.820692 0-1.49812 0.669242-1.49812 1.525749 0 0.825808 0.681522 1.50119 1.49812 1.501191h6.744611c4.507664 0 9.477862 0.258896 7.795547 3.49152l-18.517749 33.423227c-0.88516 1.556449-3.295046 1.683339-9.591449 1.683339l-6.825452 0.01842c-0.838088 0-1.51961 0.710175-1.51961 1.543145 0 0.796132 0.681522 1.49505 1.51961 1.495051h6.66377c4.980431 0 6.825452 0.657986 5.396916 3.215228l-24.731264 44.74611c-2.952238 3.202948-6.470365 3.816932-12.507871 3.816932-9.020444 0-8.928347 7.145747 0.47993 7.145747h60.552098c9.406231 0 7.015787-7.272637 1.450025-7.272637-3.238764 0-6.696516-5.993504-4.515851-9.581216l30.907941-58.555627h3.14769c13.744026 0 17.075911 22.558785 19.647479 47.176462 0.192382 1.778506-3.15997 1.846044-10.019191 1.846045l-17.178241 0.060375c-0.837064 0-1.511423 0.669242-1.511424 1.49505 0 0.820692 0.673335 1.51347 1.511424 1.51347h16.981766c4.532223 0 10.837836 0.041956 11.003612 1.471514 1.174756 10.819416 2.061962 20.329001 4.148483 29.001521 0.635473 2.695389-4.185322 2.267647-9.337669 2.267647l-21.89466 0.023536c-0.837064 0-1.511423 0.693802-1.511423 1.49505 0 0.856507 0.673335 1.52575 1.511423 1.52575l21.872147 0.023536c6.873548 0 10.42135 0 10.812253 1.404999 9.407254 34.541701 49.805336 61.740156 89.076758 60.237943 33.709753-1.278109 62.188364-19.617803 76.736709-31.30396 19.416212-15.559371 47.879474-48.14144 59.492976-71.823816 2.094708-4.340865 5.52483-9.907651 4.732791-13.771654m-226.555899-45.978171c-4.727675 3.854794-12.159948 8.335852-13.603833 6.91755-2.01489-1.995447-8.277524-6.320962-11.632945-7.865132l28.072359-51.29527c1.154289-1.803066 2.493797-2.786463 5.583159-2.786462 10.915607 0 14.488992 11.843746 9.359158 26.594704-3.598968 10.343579-9.43079 21.553898-17.777898 28.43461" fill="#552582" p-id="15281"></path><path d="M403.056264 400.125003c-5.698792 7.345292-13.224186 9.221012-21.670556 9.221012h-2.379186l14.892175-29.488614c0.711198-1.363044 2.281973-2.424212 4.233417-2.424213 1.863441 0 1.62501-3.720741-0.808411-3.720741h-23.492041c-1.992377 0-2.689249 3.720741-0.828878 3.720741 2.00261 0 2.360767 2.219551 1.408069 4.100388l-13.339819 26.28055c-0.910743 1.417279-2.385327 1.790786-4.010337 2.230808-1.984191 0.50756-3.344165 4.047176-1.101078 4.047176h37.485753c2.898003 0 3.576455-1.061169 4.341888-2.098801l7.544837-11.681041c1.083681-1.39886-1.193175-1.597381-2.275833-0.187265M515.97401 374.755196c-1.14508 0.639566-3.823072 0.959861-4.999874-0.023536-2.984984-2.478448-8.861832-4.391007-11.939937-4.391007-8.831132 0-15.232936 1.743714-19.082614 10.083659-3.26844 7.122211 0.086981 13.07376 7.875364 16.668635 3.37691 1.567705 7.851828 3.612271 6.135744 7.658424-1.248434 2.984984-4.707209 3.285836-7.827269 3.274579-4.178159-0.054235-10.480702-3.195785-11.44875-9.100262-0.330528-1.929955-2.573615-1.477654-3.219321-0.452301l-5.336542 10.632151c-0.838088 1.411139 1.372254 2.972705 2.238994 2.056846 1.794879-1.929955 5.713119-2.406816 7.641028-1.110287 2.667759 1.77339 9.519818 4.879124 13.560853 4.837168 8.965186-0.066515 14.880919-2.358721 19.793812-10.05296 4.472871-7.007601 1.721201-13.954827-6.457062-17.820877-4.323469-2.013867-8.020674-5.613858-6.093788-9.58224 1.276063-2.568499 5.102205-2.020006 7.01067-1.700735 3.660366 0.626263 8.336876 4.064572 8.878205 7.085373 0.234337 1.284249 1.862417 1.544169 2.598174 0.391926l2.806929-6.566556c0.644683-1.266853-1.422396-2.261507-2.134616-1.888M776.081049 385.320832l3.27765-5.999644c1.429559-2.647293-0.901533-5.656837-4.64581-5.656836h-43.768853c-3.143597 0-2.246157 3.281743-0.955768 3.281743 2.813069 0 3.64297 3.436262 1.936095 6.337335l-13.153578 24.200168c-1.962701 2.328022-3.217275 3.322675-6.030343 3.322675-2.257413 0-3.065825 3.292999 0.094144 3.293h44.360324c1.796926 0 2.608407-0.639566 3.241834-1.544169l6.02625-8.008395c1.466398-1.917676-1.705851-1.917676-2.669806-0.964977-7.648191 7.653307-15.845896 7.453762-21.794375 7.453762h-5.164627l6.05388-13.57518h1.313925c3.88754 0 8.378831-0.054235 9.582239 2.924609 0.311085 0.705058 2.213411 1.27197 2.998287 0l5.176907-10.366092c0.841158-1.538029-1.483794-1.803066-2.128477-0.699941-2.029216 3.648087-11.036357 2.671852-13.375636 2.671852h-1.314948l7.570419-14.919804h8.42795c5.234211 0 9.741875 3.696182 11.232832 7.737218 0.354064 0.964978 3.154853 1.74269 3.709485 0.512676M664.100652 373.663328h-15.573697c-3.160993 0-2.220574 3.281743-0.950652 3.281743 3.344165 0 6.368034 3.906983 4.545526 7.525394l-6.461155 11.80179-14.221909-20.828374c-0.948605-1.272993-3.180436-1.899256-5.119601-1.899256H610.999247c-3.151783 0-2.422166 3.27458-1.143034 3.27458 3.251044 0 2.421142 2.436492 1.615801 4.173042l-12.220323 23.50739c-0.784876 1.88186-4.094248 2.140757-5.14416-0.246617l-9.43386-30.798446c-0.39295-1.212618-5.924943-1.146103-7.330965 0l-23.681352 19.539008h-12.286838c-2.422166 0-3.39226 1.01819-3.39226 2.303463 0 1.296529 0.925069 2.478448 3.482311 2.478447l6.411013-0.018419-6.411013 5.294586c-3.548826 2.636037-7.190773 6.308683-9.651824 6.308683h-1.463328c-2.330068 0-3.645017 0.379647-3.645017 2.243087s0.988514 2.503007 3.180436 2.503007h19.104104c3.609201 0 2.894933-4.696975 1.093914-4.696976-1.983167 0-5.255701-2.515287-2.212388-6.054902l5.834892-5.571903h11.492752c6.814196 0 11.586896 7.893784 7.517207 10.354836l-3.13541 1.73655c-1.485841 0.766456-2.131547 4.239558 0 4.239558h37.319977c2.791579 0 2.216481-3.648087 0.921999-3.648087-3.802606 0-2.001587-5.511527-1.266853-6.976901l9.803273-18.586311 13.790074 26.709315c0.88516 1.677199 1.705851 2.503007 3.319606 2.503007h5.278213c1.661849 0 2.237971-0.971118 2.997264-2.255367l15.680121-28.343535c2.536776-5.065366 4.473895-6.519484 7.652284-6.519483 1.291412-0.022513 2.192945-3.332908-0.975211-3.332909m-104.417141 19.322068l14.599509-11.910261 0.066515 11.910261h-14.666024zM442.957019 371.890962c-13.132088 0-26.64894 6.471388-29.361725 20.244066-2.349511 11.995195 5.951549 24.423249 20.624737 24.423249 13.944594 0 26.832112-9.136078 29.421076-22.361287 2.594081-13.290701-7.299243-22.306029-20.684088-22.306028m3.730975 25.261337c-4.182252 8.29185-11.144828 13.248745-15.592117 11.017938-4.428869-2.237971-4.643764-10.770298-0.473791-19.075451 4.142343-8.303106 11.117199-13.248745 15.567557-11.017938 4.426823 2.232854 4.640694 10.771321 0.498351 19.075451M708.487581 391.990742h-16.854876c-3.151783 0-2.228761 3.298116-0.959861 3.298116 1.339508 0 2.580778 0.699941 2.580778 2.834558 0 6.814196-2.88163 9.431813-8.762571 9.431814-6.40999 0-8.738012-7.791453-4.402263-17.342994 2.752694-6.109138 10.06524-11.82021 18.721387-11.82021 5.328355 0 9.79918 1.146103 10.457166 6.126534 0.162706 1.231037 2.01489 1.231037 2.628873 0.071632l4.02671-7.181563c0.448208-0.766456-0.25378-1.676176-1.477654-1.75497-1.025353-0.066515-3.344165 1.25969-4.842285 0.144286-3.38919-2.508123-10.722202-4.950755-16.275685-4.950755-9.072633 0-21.721721 2.044566-30.252001 16.884552-7.712659 13.411451 3.527336 27.583219 13.970176 27.601638 5.788843 0.01842 12.524245-4.275373 16.374946-5.903453l4.310166 2.936888c0.620124 0.753153 1.983167 1.725294 3.261277 1.725295h1.604544c1.499144 0 2.074242-2.020006 2.653433-3.304256l6.606464-16.029068c0.852414-1.604544 0.378623-2.768043-3.368724-2.768044M939.585937 374.755196c-1.130753 0.639566-3.826142 0.959861-4.981455-0.023536-2.984984-2.478448-8.864902-4.391007-11.939937-4.391007-8.832156 0-15.245216 1.743714-19.083637 10.083659-3.295046 7.122211 0.081864 13.07376 7.872295 16.668635 3.39533 1.567705 7.879458 3.612271 6.157233 7.658424-1.26583 2.984984-4.749164 3.285836-7.864108 3.274579-4.15974-0.054235-10.465352-3.195785-11.44568-9.100262-0.314155-1.929955-2.559289-1.477654-3.192715-0.452301l-5.348822 10.632151c-0.842181 1.411139 1.358951 2.972705 2.236948 2.056846 1.809205-1.929955 5.728468-2.406816 7.667633-1.110287 2.647293 1.77339 9.461489 4.879124 13.568017 4.837168 8.928347-0.066515 14.854313-2.358721 19.7406-10.05296 4.496407-7.007601 1.730411-13.954827-6.43148-17.820877-4.335748-2.013867-8.02886-5.613858-6.090718-9.58224 1.246387-2.568499 5.117554-2.020006 7.03216-1.700735 3.620457 0.626263 8.325619 4.064572 8.855692 7.085373 0.229221 1.284249 1.854231 1.544169 2.579755 0.391926l2.813069-6.566556c0.623193-1.266853-1.430582-2.261507-2.14485-1.888M822.287417 400.125003c-5.66093 7.345292-13.208836 9.221012-21.675672 9.221012h-2.37714l14.916734-29.488614c0.717338-1.363044 2.26253-2.424212 4.221138-2.424213 1.866511 0 1.638313-3.720741-0.819668-3.720741h-23.48283c-1.992377 0-2.699482 3.720741-0.831948 3.720741 2.004657 0 2.375094 2.219551 1.407046 4.100388l-13.338797 26.28055c-0.911766 1.417279-2.363837 1.790786-4.013407 2.230808-1.984191 0.50756-3.331885 4.047176-1.085727 4.047176h37.484729c2.891863 0 3.594875-1.061169 4.357238-2.098801l7.517207-11.681041c1.113357-1.39886-1.181919-1.597381-2.278903-0.187265M878.828155 377.064798c5.219885 0 9.751085 3.697205 11.228738 7.738242 0.334621 0.971118 3.13541 1.74883 3.724835 0.517792l3.2623-5.999644c1.404999-2.647293-0.921999-5.656837-4.65809-5.656836h-43.762713c-3.160993 0-2.238994 3.281743-0.948604 3.281743 2.826372 0 3.667529 3.436262 1.948375 6.337335l-13.152555 24.200168c-1.962701 2.328022-3.244904 3.322675-6.042623 3.322675-2.258437 0-3.054569 3.292999 0.11154 3.293h44.341905c1.796926 0 2.605338-0.639566 3.238764-1.544169L884.15037 404.546709c1.480724-1.917676-1.705851-1.917676-2.673899-0.964977-7.653307 7.653307-15.864316 7.453762-21.791306 7.453762h-5.173836l6.075369-13.57518h1.290389c3.89675 0 8.394181-0.054235 9.570983 2.924609 0.322341 0.705058 2.236947 1.27197 3.0208 0l5.16565-10.366092c0.852414-1.538029-1.482771-1.803066-2.108011-0.699941-2.066055 3.648087-11.036357 2.671852-13.411451 2.671852h-1.281179l7.573489-14.919804h8.420787v-0.00614z" fill="#552582" p-id="15282"></path><path d="M616.838232 548.204573c-25.340131 30.749328-39.71349 41.271986-65.456805 41.271986-8.764618 0-13.326517-1.971911-10.864442-6.211469l30.530341-61.406558h11.644201c13.004175 0 11.205203 10.957563 7.667633 25.780153-0.623193 2.074242 0.943488 2.188852 2.488681 0.391926l29.030174-51.018977c1.420349-3.220345-2.25025-3.841491-4.036943-1.411139-14.540158 19.739577-29.847795 18.274202-36.295648 18.274202H576.278467l32.628118-62.2426h13.144368c16.554024 1.025353 24.26259 15.08865 19.471471 48.979528h6.891967l23.967878-47.254233c1.940189-3.991917-2.143826-7.653307-6.66377-7.653307l-162.725129 0.048095c-9.420557 0-9.845229 7.230682-0.802272 7.230682 7.314593 0 6.928806 10.498098 0.353041 15.575743l-69.076238 54.854329 13.954826 64.760956c1.016143 4.88424 4.170996 7.212262 9.564843 7.212262h134.554532c5.548366 0 7.838525-2.255367 9.627265-4.564969l24.359804-42.080397c3.373841-6.060019-4.447289-5.668093-8.690939-0.536213m-93.724615-29.572526l-11.846816-0.066514c-0.820692 0-1.49505 0.650823-1.49505 1.489933 0 0.818645 0.674359 1.49505 1.49505 1.495051l12.006452-0.114611c4.071735 0 7.794523 0.517793 6.757914 2.321882l-31.117718 59.412135c-3.855818 7.080256-12.042267 5.27105-13.338797-0.391926l-15.410991-79.627549 54.188156-42.013883c5.374404-4.619204 15.743566-12.157901 21.036106-12.072966l11.803837-0.072655c7.182586-0.042979 9.754155 3.322675 8.045233 7.676843l-2.087544 4.015454c-1.350764 2.255367-5.592368 2.526543-9.210779 2.526543l-6.814196 0.030699c-0.839111 0-1.509377 0.663102-1.509377 1.51347 0 0.838088 0.669242 1.49505 1.509377 1.49505h6.723121c2.904143 0 6.548136 0.072655 5.210675 2.25639l-25.1324 47.919383c-1.163499 1.868557-6.385431 2.207271-10.812253 2.207271" fill="#552582" p-id="15283"></path><path d="M411.414629 588.156494c-3.663436-0.12689-6.012947-2.617617-6.815219-5.04183-1.157359-3.455705-1.051959-9.601682 0.337691-12.319583l62.784951-111.330598c1.017166-2.055822 3.564175-6.350638 6.68219-6.350638 5.545296 0.00614 7.941879-7.284917-1.452072-7.284917h-50.285266c-9.394974 0-9.489118 7.15291-0.486071 7.15291 3.672646 0 5.135974 3.599991 4.089132 5.794983l-13.882172 25.183566c-1.736551 2.755764-5.584182 2.972705-9.639544 2.972704l-11.975753-0.048095c-0.829901 0-1.499144 0.687662-1.499143 1.50733 0 0.831948 0.669242 1.531889 1.499143 1.531889h11.873422c3.211135 0 5.771447 0.971118 3.922333 4.696976l-46.337352 84.415598c-3.338025 4.644787-9.986445 5.681396-9.609868-3.219321l16.4783-123.626645c0.650823-3.865028-0.364297-6.482645-4.496408-6.482645l-24.839734 0.048095c-2.972705 0-4.799306 1.440815-6.228865 3.365654l-8.877182 11.162224c-1.170662 1.157359-3.664459 1.151219-6.422269 1.15122l-20.874423-0.035816c-0.828878 0-1.49505 0.669242-1.495051 1.49505 0 0.850367 0.666172 1.52575 1.495051 1.52575h17.036001c3.021823 0 6.5553 0.699941 5.27412 2.12336l-23.905456 30.067806c-0.720408 0.825808-3.03001 1.048889-4.462638 1.048889l-6.747681-0.00614c-0.844228 0-1.51654 0.676405-1.51654 1.496074 0 0.825808 0.672312 1.50119 1.51654 1.50119l5.632277 0.01842c1.74576 0 1.75804 0.850367 1.061169 1.645476l-22.481014 28.228925c-1.155313 1.090844-3.39533 1.314948-5.578042 1.314948l-19.847024-0.018419a1.494027 1.494027 0 0 0-1.486864 1.508353 1.50426 1.50426 0 0 0 1.486864 1.50119h17.026792c2.586918 0 4.583388 0.458441 3.220344 2.202155l-31.940456 40.058345c-6.002714 7.648191-34.913161 11.541871-40.542368 11.54187l108.010992-202.10502c1.028423-2.321882 5.047969-5.867638 9.184173-5.867638h22.937409c10.824533 0 10.505261-7.199982 1.109264-7.199983H215.045239c-9.386788 0-9.766434 7.199982 1.037633 7.199983h21.3564c6.057973 0 8.005324 3.660366 6.456039 6.65763l-3.063779 5.560646c-1.003863 1.803066-2.445702 2.527566-8.30106 2.527566l-37.729299-0.018419c-0.831948 0-1.49812 0.657986-1.49812 1.49505 0 0.831948 0.669242 1.50119 1.49812 1.50119l37.633109 0.01228c2.041496 0 5.101181 0.530073 3.177365 4.202718l-5.291516 9.793041c-0.892323 1.489934-3.198855 2.194992-5.858428 2.194992l-17.090237-0.029676c-0.847298 0-1.511423 0.681522-1.511423 1.496073a1.494027 1.494027 0 0 0 1.511423 1.51347l17.012466 0.023536c2.433422 0 2.499937 1.592264 1.088797 3.841492l-12.151761 22.590507c-1.037632 1.923816-3.012613 2.182712-6.872524 2.182712l-6.808056-0.036839c-0.838088 0-1.51347 0.675382-1.51347 1.51347 0 0.825808 0.675382 1.49505 1.51347 1.495051l6.718005 0.012279c2.559289 0 3.235694 1.429559 2.086521 3.872191l-9.975188 18.543332c-1.485841 2.636037-3.603061 3.684926-10.236132 3.684925l-37.727253-0.036839c-0.844228 0-1.5104 0.687662-1.5104 1.51347 0 0.831948 0.666172 1.50733 1.5104 1.50733l37.623899 0.01228c4.248767 0.066515 5.816472 1.923816 4.154623 4.975315l-19.484773 36.594453c-1.151219 1.62194-4.329609 1.86958-9.748015 1.86958l-37.724183-0.048095c-0.838088 0-1.49812 0.687662-1.498121 1.518586 0 0.826831 0.663102 1.489934 1.498121 1.489934l37.633108 0.012279c4.501524 0 7.254218 0.187265 5.878895 2.563382l-11.195994 21.110807c-2.068102 3.220345-7.851828 3.220345-10.106172 3.220345l-11.970635-0.035816c-0.822738 0-1.49505 0.669242-1.495051 1.50733 0 0.831948 0.672312 1.502213 1.495051 1.502214l11.865235 0.00614c4.199649 0 6.407943 0.728594 5.313006 2.978844l-14.994506 28.173666c-1.347694 2.514263-7.209192 2.635013-11.722996 2.635014l-58.32129-0.054236c-0.810459 0-1.5104 0.687662-1.5104 1.524727 0 0.808412 0.699941 1.496074 1.5104 1.496073l58.239426 0.01228c3.861958 0 8.731872 0.470721 6.916526 3.558036l-9.53926 17.988699c-0.904603 1.483794-4.167926 1.610684-8.877181 1.610684l-11.95631-0.018419c-0.838088 0-1.51654 0.669242-1.51654 1.49505 0 0.838088 0.678452 1.496074 1.51654 1.496074h11.877515c2.879584 0 6.42227 0.330528 5.179976 2.538822l-5.985318 11.481496c-1.926886 2.858094-3.850701 5.396917-8.479115 5.396917H75.820338c-10.824533 0-10.444886 7.206122-1.048889 7.206122l171.858136 0.103354c5.02648 0 5.183046-0.675382 7.549953-4.383844l25.493628-44.432978 130.263809 0.01228c9.408277 0.017396 6.986111-7.073092 1.477654-7.254218m-102.186334-13.237489c-1.27504 7.333012-8.650007 12.175297-17.930371 14.642488l-9.561773 2.375094 7.861038-14.159488c2.068102-3.846608-2.470261-6.115278-7.414877-0.391926-33.255405 38.763862-43.877323 57.302077-95.178732 57.440223l-13.789051 0.023536c-4.166903 0-8.747221-1.62808-5.915734-5.612834l18.145266-33.81413 68.943208 0.01228c9.407254 0 6.992251-7.091512 1.465375-7.271614-3.648087-0.12689-7.636934-2.213411-10.456143-6.67605-0.796132-1.236154-2.509147-6.144954 0.170892-9.925047l26.40437-35.097356h43.889603l-6.633071 38.454824z m9.930164-44.366464h-42.804899l54.156434-71.430865-11.351535 71.430865z" fill="#552582" p-id="15284"></path><path d="M970.609511 552.643676c-0.703011-3.527336-1.972934-1.382487-4.299933 3.068895-0.714268 1.339508-2.972705 1.382487-5.233188 1.382487l-6.872524 0.022512c-0.840134 0-1.51961 0.669242-1.51961 1.51961 0 0.808412 0.679475 1.477654 1.51961 1.477654h6.777357c2.557242 0 2.618641 1.718131 1.406022 4.297886-4.749164 10.102079-9.627265 16.868179-16.117072 24.991184-1.016143 1.26583-3.620457 2.375094-5.683443 2.375094l-6.928806 0.042979c-0.831948 0-1.499144 0.675382-1.499144 1.51347 0 0.813528 0.668219 1.49505 1.499144 1.49505h6.777357c3.409656 0-0.048095 2.086521-0.623194 2.859117-12.015661 16.040325-20.302395 23.198352-29.125341 30.379915-1.036609 0.831948-6.014994 0.532119-9.505491 0.50756l-6.827499 0.023536c-0.820692 0-1.49812 0.680499-1.49812 1.530866 0 0.820692 0.681522 1.51347 1.49812 1.51347h6.745635c5.140067 0 1.26583 2.949168 0.505513 3.582595-18.7439 15.612583-46.626947 20.623713-59.395762 19.037588-41.423435-5.191232-49.969065-36.640502-53.03489-49.214888-0.621147-2.622734-2.617617-8.019651-3.27765-11.342326-1.276063-6.567579 17.412578-8.43716 22.577205-4.981455 7.817036 5.234211 26.078958 10.613732 40.443107 10.656711 13.284561 0.048095 40.479947-9.606799 48.343032-32.42141 8.05649-23.343661-12.159948-49.262984-21.134343-58.199517-11.391445-11.417027-22.185278-29.574572-17.625426-42.902112 3.418866-10.058077 9.141194-14.616906 21.406542-14.616906 15.852036 0 27.370371 10.191106 27.370371 24.645307 0 1.302669-0.772596 2.828418-1.821485 2.828418l-5.602601 0.018419c-0.829901 0-1.508353 0.699941-1.508354 1.52575 0 0.831948 0.681522 1.50733 1.508354 1.50733l5.2557-0.01228c1.488911 0 2.420119 1.127683 2.029216 2.942006-1.014096 4.824889-1.359974 8.231475-2.409886 13.079899-0.632403 2.811022 3.495614 4.758374 4.925173 2.707669l24.914436-44.473911c1.810229-3.358491-2.203178-4.257977-5.152347-3.214205-6.826476 2.346441-17.916045 4.004197-21.84861 1.164523-9.31618-6.681166-17.814738-10.963703-30.795377-10.963703-22.158672 0-37.665855 5.439896-47.613414 23.670096-0.774643 1.428535-2.951215 1.410116-4.811586 1.410116h-4.253884c-0.828878 0-1.496074 0.645706-1.496073 1.49505 0 0.825808 0.669242 1.49505 1.496073 1.49505l3.620458-0.029676c1.545192 0 2.584871 0.433882 1.812275 2.237971a66.209958 66.209958 0 0 0-1.877767 5.1503c-2.515287 7.893784-1.695618 18.965957 2.255367 28.825513 0.251733 0.664126-0.595564 0.972141-2.120291 0.97214h-6.76917c-0.837064 0-1.50733 0.681522-1.50733 1.51961a1.494027 1.494027 0 0 0 1.50733 1.49505h6.76917c3.065825 0.01228 3.804652 0.337691 5.071506 2.117221 3.510964 4.926196 7.080256 8.574283 11.576663 14.304797 1.431605 1.784646-4.623297 2.291183-7.839549 2.266624l-26.836205-0.01228c-0.853437 0-1.499144 0.693802-1.499143 1.51347 0 0.825808 0.645706 1.50733 1.499143 1.50733l27.172873-0.035816c4.369517 0 11.863189-0.060375 12.706393 0.899486 6.558369 7.598049 14.513552 19.279089 15.876596 29.114085 0.378623 2.845815-0.681522 4.033873-4.177136 4.033873h-3.64604c-0.829901 0-1.49505 0.657986-1.495051 1.496074 0 0.831948 0.669242 1.49505 1.495051 1.49505h3.218298c2.777253 0 4.282536 0.465604 3.632737 2.538823-3.530406 11.253298-8.809643 19.405979-30.320563 19.291368-22.550599-0.132006-27.137057-22.239514-20.541848-45.311998 1.289366-4.577249-0.058328-6.560416-2.123361-2.936889l-15.703657 24.658609c-0.379647 0.585331-1.890047 1.990331-4.290723 1.990331l-2.212388-0.01228c-0.849344 0-1.49505 0.681522-1.49505 1.51347 0 0.826831 0.677429 1.496074 1.49505 1.496074 1.986237 0 2.768043 1.061169 1.986238 2.164292l-5.732562 8.974396c-9.509585-21.698185-25.396413-48.424896-33.869388-58.152445l0.147356-0.469698c20.925588-1.272993 51.765991-20.86112 56.840566-38.379098 8.762571-30.387078-20.756743-41.615816-36.852326-41.615817l-70.704319 0.01228c-9.395998 0-10.088776 7.133468-1.074471 7.133467 4.877077 0 9.130961 4.257977 6.990205 8.57019l-15.658632 28.222785c-1.291412 2.315742-6.16542 2.176572-12.474102 2.176572h-6.859222c-0.820692 0-1.49812 0.669242-1.49812 1.525749 0 0.825808 0.681522 1.50119 1.49812 1.501191h6.744611c4.507664 0 9.477862 0.258896 7.795547 3.49152l-18.517749 33.423227c-0.88516 1.556449-3.295046 1.683339-9.591449 1.683339l-6.825452 0.01842c-0.838088 0-1.51961 0.710175-1.51961 1.543145 0 0.796132 0.681522 1.49505 1.51961 1.495051h6.66377c4.980431 0 6.825452 0.657986 5.396916 3.215228l-24.731264 44.74611c-2.952238 3.202948-6.470365 3.816932-12.507871 3.816932-9.020444 0-8.928347 7.145747 0.47993 7.145747h60.552098c9.406231 0 7.015787-7.272637 1.450025-7.272637-3.238764 0-6.696516-5.993504-4.515851-9.581216l30.907941-58.555627h3.14769c13.744026 0 17.075911 22.558785 19.647479 47.176462 0.192382 1.778506-3.15997 1.846044-10.019191 1.846045l-17.178241 0.060375c-0.837064 0-1.511423 0.669242-1.511424 1.49505 0 0.820692 0.673335 1.51347 1.511424 1.51347h16.981766c4.532223 0 10.837836 0.041956 11.003612 1.471514 1.174756 10.819416 2.061962 20.329001 4.148483 29.001521 0.635473 2.695389-4.185322 2.267647-9.337669 2.267647l-21.89466 0.023536c-0.837064 0-1.511423 0.693802-1.511423 1.49505 0 0.856507 0.673335 1.52575 1.511423 1.52575l21.872147 0.023536c6.873548 0 10.42135 0 10.812253 1.404999 9.407254 34.541701 49.805336 61.740156 89.076758 60.237943 33.709753-1.278109 62.188364-19.617803 76.736709-31.30396 19.416212-15.559371 47.879474-48.14144 59.492976-71.823816 2.094708-4.340865 5.52483-9.907651 4.732791-13.771654m-226.555899-45.978171c-4.727675 3.854794-12.159948 8.335852-13.603833 6.91755-2.01489-1.995447-8.277524-6.320962-11.632945-7.865132l28.072359-51.29527c1.154289-1.803066 2.493797-2.786463 5.583159-2.786462 10.915607 0 14.488992 11.843746 9.359158 26.594704-3.598968 10.343579-9.43079 21.553898-17.777898 28.43461" fill="#552582" p-id="15285"></path><path d="M403.056264 400.125003c-5.698792 7.345292-13.224186 9.221012-21.670556 9.221012h-2.379186l14.892175-29.488614c0.711198-1.363044 2.281973-2.424212 4.233417-2.424213 1.863441 0 1.62501-3.720741-0.808411-3.720741h-23.492041c-1.992377 0-2.689249 3.720741-0.828878 3.720741 2.00261 0 2.360767 2.219551 1.408069 4.100388l-13.339819 26.28055c-0.910743 1.417279-2.385327 1.790786-4.010337 2.230808-1.984191 0.50756-3.344165 4.047176-1.101078 4.047176h37.485753c2.898003 0 3.576455-1.061169 4.341888-2.098801l7.544837-11.681041c1.083681-1.39886-1.193175-1.597381-2.275833-0.187265" fill="#552582" p-id="15286"></path><path d="M515.97401 374.755196c-1.14508 0.639566-3.823072 0.959861-4.999874-0.023536-2.984984-2.478448-8.861832-4.391007-11.939937-4.391007-8.831132 0-15.232936 1.743714-19.082614 10.083659-3.26844 7.122211 0.086981 13.07376 7.875364 16.668635 3.37691 1.567705 7.851828 3.612271 6.135744 7.658424-1.248434 2.984984-4.707209 3.285836-7.827269 3.274579-4.178159-0.054235-10.480702-3.195785-11.44875-9.100262-0.330528-1.929955-2.573615-1.477654-3.219321-0.452301l-5.336542 10.632151c-0.838088 1.411139 1.372254 2.972705 2.238994 2.056846 1.794879-1.929955 5.713119-2.406816 7.641028-1.110287 2.667759 1.77339 9.519818 4.879124 13.560853 4.837168 8.965186-0.066515 14.880919-2.358721 19.793812-10.05296 4.472871-7.007601 1.721201-13.954827-6.457062-17.820877-4.323469-2.013867-8.020674-5.613858-6.093788-9.58224 1.276063-2.568499 5.102205-2.020006 7.01067-1.700735 3.660366 0.626263 8.336876 4.064572 8.878205 7.085373 0.234337 1.284249 1.862417 1.544169 2.598174 0.391926l2.806929-6.566556c0.644683-1.266853-1.422396-2.261507-2.134616-1.888" fill="#552582" p-id="15287"></path><path d="M776.081049 385.320832l3.27765-5.999644c1.429559-2.647293-0.901533-5.656837-4.64581-5.656836h-43.768853c-3.143597 0-2.246157 3.281743-0.955768 3.281743 2.813069 0 3.64297 3.436262 1.936095 6.337335l-13.153578 24.200168c-1.962701 2.328022-3.217275 3.322675-6.030343 3.322675-2.257413 0-3.065825 3.292999 0.094144 3.293h44.360324c1.796926 0 2.608407-0.639566 3.241834-1.544169l6.02625-8.008395c1.466398-1.917676-1.705851-1.917676-2.669806-0.964977-7.648191 7.653307-15.845896 7.453762-21.794375 7.453762h-5.164627l6.05388-13.57518h1.313925c3.88754 0 8.378831-0.054235 9.582239 2.924609 0.311085 0.705058 2.213411 1.27197 2.998287 0l5.176907-10.366092c0.841158-1.538029-1.483794-1.803066-2.128477-0.699941-2.029216 3.648087-11.036357 2.671852-13.375636 2.671852h-1.314948l7.570419-14.919804h8.42795c5.234211 0 9.741875 3.696182 11.232832 7.737218 0.354064 0.964978 3.154853 1.74269 3.709485 0.512676" fill="#552582" p-id="15288"></path><path d="M664.100652 373.663328h-15.573697c-3.160993 0-2.220574 3.281743-0.950652 3.281743 3.344165 0 6.368034 3.906983 4.545526 7.525394l-6.461155 11.80179-14.221909-20.828374c-0.948605-1.272993-3.180436-1.899256-5.119601-1.899256H610.999247c-3.151783 0-2.422166 3.27458-1.143034 3.27458 3.251044 0 2.421142 2.436492 1.615801 4.173042l-12.220323 23.50739c-0.784876 1.88186-4.094248 2.140757-5.14416-0.246617l-9.43386-30.798446c-0.39295-1.212618-5.924943-1.146103-7.330965 0l-23.681352 19.539008h-12.286838c-2.422166 0-3.39226 1.01819-3.39226 2.303463 0 1.296529 0.925069 2.478448 3.482311 2.478447l6.411013-0.018419-6.411013 5.294586c-3.548826 2.636037-7.190773 6.308683-9.651824 6.308683h-1.463328c-2.330068 0-3.645017 0.379647-3.645017 2.243087s0.988514 2.503007 3.180436 2.503007h19.104104c3.609201 0 2.894933-4.696975 1.093914-4.696976-1.983167 0-5.255701-2.515287-2.212388-6.054902l5.834892-5.571903h11.492752c6.814196 0 11.586896 7.893784 7.517207 10.354836l-3.13541 1.73655c-1.485841 0.766456-2.131547 4.239558 0 4.239558h37.319977c2.791579 0 2.216481-3.648087 0.921999-3.648087-3.802606 0-2.001587-5.511527-1.266853-6.976901l9.803273-18.586311 13.790074 26.709315c0.88516 1.677199 1.705851 2.503007 3.319606 2.503007h5.278213c1.661849 0 2.237971-0.971118 2.997264-2.255367l15.680121-28.343535c2.536776-5.065366 4.473895-6.519484 7.652284-6.519483 1.291412-0.022513 2.192945-3.332908-0.975211-3.332909m-104.417141 19.322068l14.599509-11.910261 0.066515 11.910261h-14.666024z" fill="#552582" p-id="15289"></path><path d="M442.957019 371.890962c-13.132088 0-26.64894 6.471388-29.361725 20.244066-2.349511 11.995195 5.951549 24.423249 20.624737 24.423249 13.944594 0 26.832112-9.136078 29.421076-22.361287 2.594081-13.290701-7.299243-22.306029-20.684088-22.306028m3.730975 25.261337c-4.182252 8.29185-11.144828 13.248745-15.592117 11.017938-4.428869-2.237971-4.643764-10.770298-0.473791-19.075451 4.142343-8.303106 11.117199-13.248745 15.567557-11.017938 4.426823 2.232854 4.640694 10.771321 0.498351 19.075451" fill="#552582" p-id="15290"></path><path d="M708.487581 391.990742h-16.854876c-3.151783 0-2.228761 3.298116-0.959861 3.298116 1.339508 0 2.580778 0.699941 2.580778 2.834558 0 6.814196-2.88163 9.431813-8.762571 9.431814-6.40999 0-8.738012-7.791453-4.402263-17.342994 2.752694-6.109138 10.06524-11.82021 18.721387-11.82021 5.328355 0 9.79918 1.146103 10.457166 6.126534 0.162706 1.231037 2.01489 1.231037 2.628873 0.071632l4.02671-7.181563c0.448208-0.766456-0.25378-1.676176-1.477654-1.75497-1.025353-0.066515-3.344165 1.25969-4.842285 0.144286-3.38919-2.508123-10.722202-4.950755-16.275685-4.950755-9.072633 0-21.721721 2.044566-30.252001 16.884552-7.712659 13.411451 3.527336 27.583219 13.970176 27.601638 5.788843 0.01842 12.524245-4.275373 16.374946-5.903453l4.310166 2.936888c0.620124 0.753153 1.983167 1.725294 3.261277 1.725295h1.604544c1.499144 0 2.074242-2.020006 2.653433-3.304256l6.606464-16.029068c0.852414-1.604544 0.378623-2.768043-3.368724-2.768044" fill="#552582" p-id="15291"></path><path d="M939.585937 374.755196c-1.130753 0.639566-3.826142 0.959861-4.981455-0.023536-2.984984-2.478448-8.864902-4.391007-11.939937-4.391007-8.832156 0-15.245216 1.743714-19.083637 10.083659-3.295046 7.122211 0.081864 13.07376 7.872295 16.668635 3.39533 1.567705 7.879458 3.612271 6.157233 7.658424-1.26583 2.984984-4.749164 3.285836-7.864108 3.274579-4.15974-0.054235-10.465352-3.195785-11.44568-9.100262-0.314155-1.929955-2.559289-1.477654-3.192715-0.452301l-5.348822 10.632151c-0.842181 1.411139 1.358951 2.972705 2.236948 2.056846 1.809205-1.929955 5.728468-2.406816 7.667633-1.110287 2.647293 1.77339 9.461489 4.879124 13.568017 4.837168 8.928347-0.066515 14.854313-2.358721 19.7406-10.05296 4.496407-7.007601 1.730411-13.954827-6.43148-17.820877-4.335748-2.013867-8.02886-5.613858-6.090718-9.58224 1.246387-2.568499 5.117554-2.020006 7.03216-1.700735 3.620457 0.626263 8.325619 4.064572 8.855692 7.085373 0.229221 1.284249 1.854231 1.544169 2.579755 0.391926l2.813069-6.566556c0.623193-1.266853-1.430582-2.261507-2.14485-1.888" fill="#552582" p-id="15292"></path><path d="M822.287417 400.125003c-5.66093 7.345292-13.208836 9.221012-21.675672 9.221012h-2.37714l14.916734-29.488614c0.717338-1.363044 2.26253-2.424212 4.221138-2.424213 1.866511 0 1.638313-3.720741-0.819668-3.720741h-23.48283c-1.992377 0-2.699482 3.720741-0.831948 3.720741 2.004657 0 2.375094 2.219551 1.407046 4.100388l-13.338797 26.28055c-0.911766 1.417279-2.363837 1.790786-4.013407 2.230808-1.984191 0.50756-3.331885 4.047176-1.085727 4.047176h37.484729c2.891863 0 3.594875-1.061169 4.357238-2.098801l7.517207-11.681041c1.113357-1.39886-1.181919-1.597381-2.278903-0.187265" fill="#552582" p-id="15293"></path><path d="M878.828155 377.064798c5.219885 0 9.751085 3.697205 11.228738 7.738242 0.334621 0.971118 3.13541 1.74883 3.724835 0.517792l3.2623-5.999644c1.404999-2.647293-0.921999-5.656837-4.65809-5.656836h-43.762713c-3.160993 0-2.238994 3.281743-0.948604 3.281743 2.826372 0 3.667529 3.436262 1.948375 6.337335l-13.152555 24.200168c-1.962701 2.328022-3.244904 3.322675-6.042623 3.322675-2.258437 0-3.054569 3.292999 0.11154 3.293h44.341905c1.796926 0 2.605338-0.639566 3.238764-1.544169L884.15037 404.546709c1.480724-1.917676-1.705851-1.917676-2.673899-0.964977-7.653307 7.653307-15.864316 7.453762-21.791306 7.453762h-5.173836l6.075369-13.57518h1.290389c3.89675 0 8.394181-0.054235 9.570983 2.924609 0.322341 0.705058 2.236947 1.27197 3.0208 0l5.16565-10.366092c0.852414-1.538029-1.482771-1.803066-2.108011-0.699941-2.066055 3.648087-11.036357 2.671852-13.411451 2.671852h-1.281179l7.573489-14.919804h8.420787v-0.00614z" fill="#552582" p-id="15294"></path><path d="M706.445062 341.648171c-3.365654-3.883447-8.011464-12.133342-41.386596-41.217751-49.103348-42.786479-114.13855-62.307068-175.23607-62.307068-45.026496 0-84.45653 10.113335-128.116912 34.138518-55.615669 30.622438-78.655408 65.815985-84.34499 72.980152-4.221138 5.258771-4.820796 8.339946-2.095732 9.91993 1.948375 1.104147 5.692652-2.984984 9.196453-7.598048 16.541745-21.853727 38.296211-43.533492 61.199851-56.281841 7.122211 1.037632 17.087167 10.963703 20.956287 16.222473-14.633279 7.983835-38.928614 26.491351-48.12609 33.619702-7.93574 6.138814-10.686387 9.600659-8.53642 12.103665 1.793856 2.074242 7.864108-2.007727 12.953009-6.175652 8.789177-7.224542 34.93158-25.750477 47.867195-32.7151 8.806573 10.311857 5.963829 29.350468 2.858094 33.481556-1.676176 2.218528-1.926886 4.577249 0 5.669116 1.793856 1.025353 3.774977-1.592264 6.340405-5.294586 5.985318-8.66638 3.587712-29.640064-1.561565-37.202297 15.778358-9.800203 38.432311-16.349363 52.160987-19.442818 1.157359 2.194992 17.796318 50.782593 20.958334 59.610656 1.724271 4.824889 3.446495 10.607592 6.977925 9.528004 2.363837-0.711198 0.801249-6.018064-1.159406-11.324929-2.432399-6.585999-15.018042-47.405683-18.884093-59.490929 4.529153-2.453888 31.847336-8.002254 38.685068-7.718799-3.358491 17.766642 9.226129 25.039279 23.419385 34.380018 7.565303 4.956895 55.565527 32.546254 65.614394 38.745443 5.720282 3.545756 10.169617 5.796006 11.379165 4.131087 1.420349-1.917676-2.466168-5.92699-7.758708-9.021468-4.217045-2.473331-48.882314-28.379351-67.547419-40.175001-13.364379-8.43716-20.557198-17.488303-17.357319-29.361725 4.405333-1.279133 17.86488-1.381463 31.852452-1.279132 95.226828 0.771573 171.59003 55.359842 180.12645 64.10911 4.328585 4.439102 10.350742 8.249895 12.678764 6.452969 1.476631-1.133823-1.070378-6.152117-3.112898-8.485255M374.40062 304.030411c-2.560312-4.287653-14.666024-15.335267-21.215184-17.511839 15.277962-11.33107 50.727335-27.522844 64.187905-30.380937 2.312672 3.858888 8.535397 20.352537 10.598382 27.305902-11.894911 2.567475-43.48028 13.886265-53.571103 20.586874m104.028285-30.646997c-12.405541 0.789992-34.93158 5.662977-42.949184 7.990998-2.078335-5.396917-7.756661-22.155603-9.570983-27.553543 22.840194-6.482645 49.41034-8.738012 69.874417-6.952342-5.700839 4.364401-15.258519 21.624507-17.35425 26.514887m61.859883-0.765433c-20.658506-1.453095-37.525662-2.045589-52.284807-0.50756 4.282536-10.770298 12.805654-20.840654 19.432585-25.242917 14.056134 0.566912 28.585035 2.622734 40.105417 4.89652 36.833907 7.266497 94.108355 29.730115 118.806872 62.83714-32.907481-21.949918-87.553055-39.23356-126.060067-41.983183M727.060589 667.703201c3.530406-6.475482 6.398734-10.16757 3.365654-11.848862-2.764973-1.52575-5.438872 4.473895-8.79634 10.29446-11.128455 19.334347-23.277146 35.266202-50.728358 60.267619-30.405497 27.704992-65.345264 43.787272-77.521585 47.900963-10.338463-29.097712-49.805336-153.034419-50.854224-156.575058-1.543146-5.294586-2.874467-6.800893-4.65502-6.193049-2.00875 0.722454-0.772596 3.63683 0.265036 8.255011 1.037632 4.625344 48.018643 151.316288 49.561789 156.459424-9.338692 4.625344-47.176462 15.220656-73.638137 16.072047-23.563672 0.782829-51.247174 0-65.225537-3.215228-16.387225-13.224186-53.643758-65.841567-67.800176-93.868901-16.659425-32.999578-27.697829-63.35084-30.538527-76.250638-1.37123-6.167466-3.116991-10.618848-6.220678-10.009981-3.331885 0.639566-1.416256 5.500271 0.531096 12.122085 5.006014 16.969487 13.183254 41.018206 30.538527 75.308173 18.395976 36.31509 51.234895 78.914304 60.810994 90.52269-30.007431-6.319939-66.476017-20.334117-101.124142-46.210461-29.852912-22.223141-55.492872-50.577932-68.402903-71.226205-2.196015-3.545756-4.806469-8.550747-8.005324-6.428409-1.440815 0.946558 0.331551 4.981455 2.575661 9.004071 18.736736 33.649378 64.414055 81.265862 122.946147 107.389845 68.210521 30.460756 142.590556 28.837792 209.111598 3.088339 58.183144-22.531156 108.794845-68.88181 133.804449-114.857935" fill="#231F20" p-id="15295"></path></svg>